<svg width="240" height="245" viewBox="0 0 240 245" fill="none" xmlns="http://www.w3.org/2000/svg">
<path d="M86.2824 31.3171C119.014 64.0125 119.294 119.125 119.294 119.125C119.294 119.125 66.5052 121.228 33.7736 88.5322C1.04202 55.8368 0.762219 0.724496 0.762219 0.724496C0.762219 0.724496 53.5508 -1.37823 86.2824 31.3171Z" fill="white"/>
<path d="M152.303 31.3171C119.572 64.0125 119.292 119.125 119.292 119.125C119.292 119.125 172.081 121.228 204.812 88.5322C237.544 55.8368 237.824 0.724496 237.824 0.724496C237.824 0.724496 185.035 -1.37823 152.303 31.3171Z" fill="white"/>
<path d="M86.2824 206.886C119.014 174.191 119.294 119.078 119.294 119.078C119.294 119.078 66.5052 116.976 33.7736 149.671C1.04202 182.366 0.762219 237.479 0.762219 237.479C0.762219 237.479 53.5508 239.581 86.2824 206.886Z" fill="white"/>
<path d="M152.303 206.886C119.572 174.191 119.292 119.078 119.292 119.078C119.292 119.078 172.081 116.976 204.812 149.671C237.544 182.366 237.824 237.479 237.824 237.479C237.824 237.479 185.035 239.581 152.303 206.886Z" fill="white"/>
</svg>
