<svg width="357" height="357" viewBox="0 0 357 357" fill="none" xmlns="http://www.w3.org/2000/svg">
<path fill-rule="evenodd" clip-rule="evenodd" d="M178.321 47.5133C106.159 47.5133 47.6598 106.012 47.6598 178.175C47.6598 250.337 106.159 308.836 178.321 308.836C250.484 308.836 308.983 250.337 308.983 178.175C308.983 106.012 250.484 47.5133 178.321 47.5133ZM0.146484 178.175C0.146484 79.7716 79.918 0 178.321 0C276.724 0 356.496 79.7716 356.496 178.175C356.496 276.578 276.724 356.35 178.321 356.35C79.918 356.35 0.146484 276.578 0.146484 178.175Z" fill="#07183B"/>
<path fill-rule="evenodd" clip-rule="evenodd" d="M178.321 130.661C152.081 130.661 130.808 151.934 130.808 178.175C130.808 204.416 152.081 225.688 178.321 225.688C204.562 225.688 225.835 204.416 225.835 178.175C225.835 151.934 204.562 130.661 178.321 130.661ZM83.2949 178.175C83.2949 125.693 125.84 83.1482 178.321 83.1482C230.803 83.1482 273.348 125.693 273.348 178.175C273.348 230.656 230.803 273.201 178.321 273.201C125.84 273.201 83.2949 230.656 83.2949 178.175Z" fill="#07183B"/>
</svg>
