<svg width="200" height="108" viewBox="0 0 200 108" fill="none" xmlns="http://www.w3.org/2000/svg">
<g clip-path="url(#clip0_14_3)">
<mask id="mask0_14_3" style="mask-type:luminance" maskUnits="userSpaceOnUse" x="0" y="0" width="200" height="108">
<path d="M0 0H200V108H0V0Z" fill="white"/>
</mask>
<g mask="url(#mask0_14_3)">
<path d="M196 0H4C1.79086 0 0 1.79086 0 4V104C0 106.209 1.79086 108 4 108H196C198.209 108 200 106.209 200 104V4C200 1.79086 198.209 0 196 0Z" fill="#F4F4F5"/>
<path d="M0 0H200V16H0V0Z" fill="#505050"/>
<g filter="url(#filter0_dd_14_3)">
<path d="M0 16H32V108H0V16Z" fill="white"/>
</g>
<path d="M6 23C6 22.7348 6.10536 22.4804 6.29289 22.2929C6.48043 22.1054 6.73478 22 7 22H25C25.2652 22 25.5196 22.1054 25.7071 22.2929C25.8946 22.4804 26 22.7348 26 23V24C26 24.2652 25.8946 24.5196 25.7071 24.7071C25.5196 24.8946 25.2652 25 25 25H7C6.73478 25 6.48043 24.8946 6.29289 24.7071C6.10536 24.5196 6 24.2652 6 24V23ZM6 29C6 28.7348 6.10536 28.4804 6.29289 28.2929C6.48043 28.1054 6.73478 28 7 28H13C13.2652 28 13.5196 28.1054 13.7071 28.2929C13.8946 28.4804 14 28.7348 14 29V30C14 30.2652 13.8946 30.5196 13.7071 30.7071C13.5196 30.8946 13.2652 31 13 31H7C6.73478 31 6.48043 30.8946 6.29289 30.7071C6.10536 30.5196 6 30.2652 6 30V29ZM6 35C6 34.7348 6.10536 34.4804 6.29289 34.2929C6.48043 34.1054 6.73478 34 7 34H15C15.2652 34 15.5196 34.1054 15.7071 34.2929C15.8946 34.4804 16 34.7348 16 35V36C16 36.2652 15.8946 36.5196 15.7071 36.7071C15.5196 36.8946 15.2652 37 15 37H7C6.73478 37 6.48043 36.8946 6.29289 36.7071C6.10536 36.5196 6 36.2652 6 36V35Z" fill="#ADADAD"/>
<path d="M6 67C6 66.7348 6.10536 66.4804 6.29289 66.2929C6.48043 66.1054 6.73478 66 7 66H25C25.2652 66 25.5196 66.1054 25.7071 66.2929C25.8946 66.4804 26 66.7348 26 67V68C26 68.2652 25.8946 68.5196 25.7071 68.7071C25.5196 68.8946 25.2652 69 25 69H7C6.73478 69 6.48043 68.8946 6.29289 68.7071C6.10536 68.5196 6 68.2652 6 68V67ZM6 73C6 72.7348 6.10536 72.4804 6.29289 72.2929C6.48043 72.1054 6.73478 72 7 72H25C25.2652 72 25.5196 72.1054 25.7071 72.2929C25.8946 72.4804 26 72.7348 26 73V74C26 74.2652 25.8946 74.5196 25.7071 74.7071C25.5196 74.8946 25.2652 75 25 75H7C6.73478 75 6.48043 74.8946 6.29289 74.7071C6.10536 74.5196 6 74.2652 6 74V73ZM6 79C6 78.7348 6.10536 78.4804 6.29289 78.2929C6.48043 78.1054 6.73478 78 7 78H25C25.2652 78 25.5196 78.1054 25.7071 78.2929C25.8946 78.4804 26 78.7348 26 79V80C26 80.2652 25.8946 80.5196 25.7071 80.7071C25.5196 80.8946 25.2652 81 25 81H7C6.73478 81 6.48043 80.8946 6.29289 80.7071C6.10536 80.5196 6 80.2652 6 80V79ZM6 85C6 84.7348 6.10536 84.4804 6.29289 84.2929C6.48043 84.1054 6.73478 84 7 84H25C25.2652 84 25.5196 84.1054 25.7071 84.2929C25.8946 84.4804 26 84.7348 26 85V86C26 86.2652 25.8946 86.5196 25.7071 86.7071C25.5196 86.8946 25.2652 87 25 87H7C6.73478 87 6.48043 86.8946 6.29289 86.7071C6.10536 86.5196 6 86.2652 6 86V85Z" fill="#ADADAD" fill-opacity="0.2"/>
<path d="M6 91C6 90.7348 6.10536 90.4804 6.29289 90.2929C6.48043 90.1054 6.73478 90 7 90H25C25.2652 90 25.5196 90.1054 25.7071 90.2929C25.8946 90.4804 26 90.7348 26 91V92C26 92.2652 25.8946 92.5196 25.7071 92.7071C25.5196 92.8946 25.2652 93 25 93H7C6.73478 93 6.48043 92.8946 6.29289 92.7071C6.10536 92.5196 6 92.2652 6 92V91Z" fill="#D5EDFF"/>
<path d="M6 97C6 96.7348 6.10536 96.4804 6.29289 96.2929C6.48043 96.1054 6.73478 96 7 96H25C25.2652 96 25.5196 96.1054 25.7071 96.2929C25.8946 96.4804 26 96.7348 26 97V98C26 98.2652 25.8946 98.5196 25.7071 98.7071C25.5196 98.8946 25.2652 99 25 99H7C6.73478 99 6.48043 98.8946 6.29289 98.7071C6.10536 98.5196 6 98.2652 6 98V97Z" fill="#ADADAD" fill-opacity="0.2"/>
<g filter="url(#filter1_dd_14_3)">
<path d="M168 16H200V108H168V16Z" fill="white"/>
</g>
<path d="M174 25C174 24.7348 174.105 24.4804 174.293 24.2929C174.48 24.1054 174.735 24 175 24H193C193.265 24 193.52 24.1054 193.707 24.2929C193.895 24.4804 194 24.7348 194 25V26C194 26.2652 193.895 26.5196 193.707 26.7071C193.52 26.8946 193.265 27 193 27H175C174.735 27 174.48 26.8946 174.293 26.7071C174.105 26.5196 174 26.2652 174 26V25ZM174 31C174 30.7348 174.105 30.4804 174.293 30.2929C174.48 30.1054 174.735 30 175 30H193C193.265 30 193.52 30.1054 193.707 30.2929C193.895 30.4804 194 30.7348 194 31V32C194 32.2652 193.895 32.5196 193.707 32.7071C193.52 32.8946 193.265 33 193 33H175C174.735 33 174.48 32.8946 174.293 32.7071C174.105 32.5196 174 32.2652 174 32V31ZM174 37C174 36.7348 174.105 36.4804 174.293 36.2929C174.48 36.1054 174.735 36 175 36H193C193.265 36 193.52 36.1054 193.707 36.2929C193.895 36.4804 194 36.7348 194 37V38C194 38.2652 193.895 38.5196 193.707 38.7071C193.52 38.8946 193.265 39 193 39H175C174.735 39 174.48 38.8946 174.293 38.7071C174.105 38.5196 174 38.2652 174 38V37Z" fill="#ADADAD" fill-opacity="0.2"/>
</g>
<mask id="mask1_14_3" style="mask-type:luminance" maskUnits="userSpaceOnUse" x="56" y="29" width="88" height="50">
<path d="M56 29H144V78.641H56V29Z" fill="white"/>
</mask>
<g mask="url(#mask1_14_3)">
<g filter="url(#filter2_dd_14_3)">
<path d="M56 33.5128C56 32.3159 56.4755 31.1681 57.3218 30.3218C58.1681 29.4755 59.3159 29 60.5128 29H139.487C140.684 29 141.832 29.4755 142.678 30.3218C143.525 31.1681 144 32.3159 144 33.5128V74.1282C144 75.3251 143.525 76.4729 142.678 77.3192C141.832 78.1656 140.684 78.641 139.487 78.641H60.5128C59.3159 78.641 58.1681 78.1656 57.3218 77.3192C56.4755 76.4729 56 75.3251 56 74.1282V33.5128Z" fill="#0F172A"/>
</g>
<path fill-rule="evenodd" clip-rule="evenodd" d="M61.641 29H62.2051V67.9231H61.641V29ZM71.2308 29H71.7949V67.9231H71.2308V29ZM81.3846 29H80.8205V67.9231H81.3846V29ZM90.4103 29H90.9744V67.9231H90.4103V29ZM100.564 29H100V67.9231H100.564V29ZM109.59 29H110.154V67.9231H109.59V29ZM119.744 29H119.179V67.9231H119.744V29ZM128.769 29H129.333V67.9231H128.769V29ZM138.923 29H138.359V67.9231H138.923V29Z" fill="#1E293B"/>
<path fill-rule="evenodd" clip-rule="evenodd" d="M144 34.641H56V35.2051H144V34.641ZM144 44.2308H56V44.7949H144V44.2308ZM56 53.8205H144V54.3846H56V53.8205ZM144 63.4103H56V63.9744H144V63.4103Z" fill="#1E293B"/>
<path d="M122 72.4359H78C77.6885 72.4359 77.4359 72.6885 77.4359 73C77.4359 73.3115 77.6885 73.5641 78 73.5641H122C122.312 73.5641 122.564 73.3115 122.564 73C122.564 72.6885 122.312 72.4359 122 72.4359Z" fill="#1E293B"/>
<path fill-rule="evenodd" clip-rule="evenodd" d="M98.8718 74.1282C99.171 74.1282 99.458 74.0093 99.6696 73.7978C99.8811 73.5862 100 73.2992 100 73C100 72.7008 99.8811 72.4138 99.6696 72.2022C99.458 71.9907 99.171 71.8718 98.8718 71.8718C98.5726 71.8718 98.2856 71.9907 98.074 72.2022C97.8625 72.4138 97.7436 72.7008 97.7436 73C97.7436 73.2992 97.8625 73.5862 98.074 73.7978C98.2856 74.0093 98.5726 74.1282 98.8718 74.1282ZM78 72.4359C77.8504 72.4359 77.7069 72.4953 77.6011 72.6011C77.4953 72.7069 77.4359 72.8504 77.4359 73C77.4359 73.1496 77.4953 73.2931 77.6011 73.3989C77.7069 73.5047 77.8504 73.5641 78 73.5641H96.0513C96.2009 73.5641 96.3444 73.5047 96.4502 73.3989C96.556 73.2931 96.6154 73.1496 96.6154 73C96.6154 72.8504 96.556 72.7069 96.4502 72.6011C96.3444 72.4953 96.2009 72.4359 96.0513 72.4359H78Z" fill="#94A3B8"/>
<path d="M105.644 58.4304L106.262 50.7648C106.334 49.8718 107.624 49.5446 108.219 50.2684L113.327 56.4932C113.929 57.2266 113.153 58.2228 112.165 57.9842L109.879 57.4313C109.457 57.3298 109.007 57.4624 108.739 57.7681L107.58 59.0881C106.923 59.8372 105.567 59.3769 105.644 58.4304Z" fill="#3B82F6"/>
<path d="M110.154 49.3077V46.4872C110.154 45.8887 109.916 45.3148 109.493 44.8917C109.07 44.4685 108.496 44.2308 107.897 44.2308H92.6667C92.0682 44.2308 91.4943 44.4685 91.0711 44.8917C90.648 45.3148 90.4103 45.8887 90.4103 46.4872V52.1282C90.4103 52.7266 90.648 53.3006 91.0711 53.7237C91.4943 54.1469 92.0682 54.3846 92.6667 54.3846H100.282" stroke="#94A3B8" stroke-width="2"/>
</g>
<path d="M85.439 86.1707H82.2683C81.3927 86.1707 80.6829 86.8805 80.6829 87.7561V90.9268C80.6829 91.8024 81.3927 92.5122 82.2683 92.5122H85.439C86.3146 92.5122 87.0244 91.8024 87.0244 90.9268V87.7561C87.0244 86.8805 86.3146 86.1707 85.439 86.1707Z" fill="#FACC15"/>
<path d="M96.5366 86.1707H93.3659C92.4903 86.1707 91.7805 86.8805 91.7805 87.7561V90.9268C91.7805 91.8024 92.4903 92.5122 93.3659 92.5122H96.5366C97.4122 92.5122 98.122 91.8024 98.122 90.9268V87.7561C98.122 86.8805 97.4122 86.1707 96.5366 86.1707Z" fill="#2DD4BF"/>
<path d="M107.634 86.1707H104.463C103.588 86.1707 102.878 86.8805 102.878 87.7561V90.9268C102.878 91.8024 103.588 92.5122 104.463 92.5122H107.634C108.51 92.5122 109.22 91.8024 109.22 90.9268V87.7561C109.22 86.8805 108.51 86.1707 107.634 86.1707Z" fill="#63E7F1"/>
<path d="M118.732 86.1707H115.561C114.685 86.1707 113.976 86.8805 113.976 87.7561V90.9268C113.976 91.8024 114.685 92.5122 115.561 92.5122H118.732C119.607 92.5122 120.317 91.8024 120.317 90.9268V87.7561C120.317 86.8805 119.607 86.1707 118.732 86.1707Z" fill="#93C5FD"/>
<path d="M68 86.9634C68 85.9123 68.4176 84.9041 69.1609 84.1609C69.9041 83.4176 70.9123 83 71.9634 83H129.037C130.088 83 131.096 83.4176 131.839 84.1609C132.582 84.9041 133 85.9123 133 86.9634V91.7195C133 92.7707 132.582 93.7788 131.839 94.5221C131.096 95.2654 130.088 95.6829 129.037 95.6829H71.9634C70.9123 95.6829 69.9041 95.2654 69.1609 94.5221C68.4176 93.7788 68 92.7707 68 91.7195V86.9634Z" fill="white" fill-opacity="0.6"/>
<path d="M71.9634 83.3963H129.037C129.983 83.3963 130.89 83.7722 131.559 84.4411C132.228 85.1101 132.604 86.0174 132.604 86.9634V91.7195C132.604 92.6656 132.228 93.5729 131.559 94.2418C130.89 94.9108 129.983 95.2866 129.037 95.2866H71.9634C71.0174 95.2866 70.1101 94.9108 69.4411 94.2418C68.7722 93.5729 68.3963 92.6656 68.3963 91.7195V86.9634C68.3963 86.0174 68.7722 85.1101 69.4411 84.4411C70.1101 83.7722 71.0174 83.3963 71.9634 83.3963Z" stroke="white" stroke-opacity="0.5"/>
</g>
<defs>
<filter id="filter0_dd_14_3" x="-15" y="9" width="62" height="122" filterUnits="userSpaceOnUse" color-interpolation-filters="sRGB">
<feFlood flood-opacity="0" result="BackgroundImageFix"/>
<feColorMatrix in="SourceAlpha" type="matrix" values="0 0 0 0 0 0 0 0 0 0 0 0 0 0 0 0 0 0 127 0" result="hardAlpha"/>
<feOffset dy="3"/>
<feGaussianBlur stdDeviation="3"/>
<feColorMatrix type="matrix" values="0 0 0 0 0 0 0 0 0 0 0 0 0 0 0 0 0 0 0.05 0"/>
<feBlend mode="normal" in2="BackgroundImageFix" result="effect1_dropShadow_14_3"/>
<feColorMatrix in="SourceAlpha" type="matrix" values="0 0 0 0 0 0 0 0 0 0 0 0 0 0 0 0 0 0 127 0" result="hardAlpha"/>
<feOffset dy="8"/>
<feGaussianBlur stdDeviation="7.5"/>
<feColorMatrix type="matrix" values="0 0 0 0 0 0 0 0 0 0 0 0 0 0 0 0 0 0 0.1 0"/>
<feBlend mode="normal" in2="effect1_dropShadow_14_3" result="effect2_dropShadow_14_3"/>
<feBlend mode="normal" in="SourceGraphic" in2="effect2_dropShadow_14_3" result="shape"/>
</filter>
<filter id="filter1_dd_14_3" x="153" y="9" width="62" height="122" filterUnits="userSpaceOnUse" color-interpolation-filters="sRGB">
<feFlood flood-opacity="0" result="BackgroundImageFix"/>
<feColorMatrix in="SourceAlpha" type="matrix" values="0 0 0 0 0 0 0 0 0 0 0 0 0 0 0 0 0 0 127 0" result="hardAlpha"/>
<feOffset dy="3"/>
<feGaussianBlur stdDeviation="3"/>
<feColorMatrix type="matrix" values="0 0 0 0 0 0 0 0 0 0 0 0 0 0 0 0 0 0 0.05 0"/>
<feBlend mode="normal" in2="BackgroundImageFix" result="effect1_dropShadow_14_3"/>
<feColorMatrix in="SourceAlpha" type="matrix" values="0 0 0 0 0 0 0 0 0 0 0 0 0 0 0 0 0 0 127 0" result="hardAlpha"/>
<feOffset dy="8"/>
<feGaussianBlur stdDeviation="7.5"/>
<feColorMatrix type="matrix" values="0 0 0 0 0 0 0 0 0 0 0 0 0 0 0 0 0 0 0.1 0"/>
<feBlend mode="normal" in2="effect1_dropShadow_14_3" result="effect2_dropShadow_14_3"/>
<feBlend mode="normal" in="SourceGraphic" in2="effect2_dropShadow_14_3" result="shape"/>
</filter>
<filter id="filter2_dd_14_3" x="41" y="22" width="118" height="79.641" filterUnits="userSpaceOnUse" color-interpolation-filters="sRGB">
<feFlood flood-opacity="0" result="BackgroundImageFix"/>
<feColorMatrix in="SourceAlpha" type="matrix" values="0 0 0 0 0 0 0 0 0 0 0 0 0 0 0 0 0 0 127 0" result="hardAlpha"/>
<feOffset dy="3"/>
<feGaussianBlur stdDeviation="3"/>
<feColorMatrix type="matrix" values="0 0 0 0 0 0 0 0 0 0 0 0 0 0 0 0 0 0 0.05 0"/>
<feBlend mode="normal" in2="BackgroundImageFix" result="effect1_dropShadow_14_3"/>
<feColorMatrix in="SourceAlpha" type="matrix" values="0 0 0 0 0 0 0 0 0 0 0 0 0 0 0 0 0 0 127 0" result="hardAlpha"/>
<feOffset dy="8"/>
<feGaussianBlur stdDeviation="7.5"/>
<feColorMatrix type="matrix" values="0 0 0 0 0 0 0 0 0 0 0 0 0 0 0 0 0 0 0.1 0"/>
<feBlend mode="normal" in2="effect1_dropShadow_14_3" result="effect2_dropShadow_14_3"/>
<feBlend mode="normal" in="SourceGraphic" in2="effect2_dropShadow_14_3" result="shape"/>
</filter>
<clipPath id="clip0_14_3">
<rect width="200" height="108" fill="white"/>
</clipPath>
</defs>
</svg>
