<svg width="200" height="108" viewBox="0 0 200 108" fill="none" xmlns="http://www.w3.org/2000/svg">
<g clip-path="url(#clip0_14_48)">
<mask id="mask0_14_48" style="mask-type:luminance" maskUnits="userSpaceOnUse" x="0" y="0" width="200" height="108">
<path d="M0 0H200V108H0V0Z" fill="white"/>
</mask>
<g mask="url(#mask0_14_48)">
<path d="M196 0H4C1.79086 0 0 1.79086 0 4V104C0 106.209 1.79086 108 4 108H196C198.209 108 200 106.209 200 104V4C200 1.79086 198.209 0 196 0Z" fill="#F4F4F5"/>
<path d="M0 0H200V16H0V0Z" fill="#505050"/>
<g filter="url(#filter0_dd_14_48)">
<path d="M0 16H32V108H0V16Z" fill="white"/>
</g>
<g filter="url(#filter1_dd_14_48)">
<path d="M56 28H144V96H56V28Z" fill="white"/>
</g>
<path d="M60 29H61V95H60V29ZM64 29H65V95H64V29ZM68 29H69V95H68V29ZM72 29H73V95H72V29ZM76 29H77V95H76V29ZM80 29H81V95H80V29ZM84 29H85V95H84V29ZM88 29H89V95H88V29ZM92 29H93V95H92V29ZM96 29H97V95H96V29ZM100 29H101V95H100V29ZM104 29H105V95H104V29ZM108 29H109V95H108V29ZM112 29H113V95H112V29ZM116 29H117V95H116V29ZM120 29H121V95H120V29ZM124 29H125V95H124V29ZM128 29H129V95H128V29ZM132 29H133V95H132V29ZM136 29H137V95H136V29ZM140 29H141V95H140V29Z" fill="#505050" fill-opacity="0.04"/>
<path d="M56 41V40H143V41H56ZM56 49V48H143V49H56ZM56 57V56H143V57H56ZM56 65V64H143V65H56ZM56 73V72H143V73H56ZM56 81V80H143V81H56ZM56 89V88H143V89H56ZM56 37V36H143V37H56ZM56 33V32H143V33H56ZM56 45V44H143V45H56ZM56 53V52H143V53H56ZM56 61V60H143V61H56ZM56 69V68H143V69H56ZM56 77V76H143V77H56ZM56 85V84H143V85H56ZM56 93V92H143V93H56Z" fill="#505050" fill-opacity="0.04"/>
<path d="M6 23C6 22.7348 6.10536 22.4804 6.29289 22.2929C6.48043 22.1054 6.73478 22 7 22H25C25.2652 22 25.5196 22.1054 25.7071 22.2929C25.8946 22.4804 26 22.7348 26 23V24C26 24.2652 25.8946 24.5196 25.7071 24.7071C25.5196 24.8946 25.2652 25 25 25H7C6.73478 25 6.48043 24.8946 6.29289 24.7071C6.10536 24.5196 6 24.2652 6 24V23ZM6 29C6 28.7348 6.10536 28.4804 6.29289 28.2929C6.48043 28.1054 6.73478 28 7 28H13C13.2652 28 13.5196 28.1054 13.7071 28.2929C13.8946 28.4804 14 28.7348 14 29V30C14 30.2652 13.8946 30.5196 13.7071 30.7071C13.5196 30.8946 13.2652 31 13 31H7C6.73478 31 6.48043 30.8946 6.29289 30.7071C6.10536 30.5196 6 30.2652 6 30V29ZM6 35C6 34.7348 6.10536 34.4804 6.29289 34.2929C6.48043 34.1054 6.73478 34 7 34H15C15.2652 34 15.5196 34.1054 15.7071 34.2929C15.8946 34.4804 16 34.7348 16 35V36C16 36.2652 15.8946 36.5196 15.7071 36.7071C15.5196 36.8946 15.2652 37 15 37H7C6.73478 37 6.48043 36.8946 6.29289 36.7071C6.10536 36.5196 6 36.2652 6 36V35Z" fill="#ADADAD"/>
<path d="M6 67C6 66.7348 6.10536 66.4804 6.29289 66.2929C6.48043 66.1054 6.73478 66 7 66H25C25.2652 66 25.5196 66.1054 25.7071 66.2929C25.8946 66.4804 26 66.7348 26 67V68C26 68.2652 25.8946 68.5196 25.7071 68.7071C25.5196 68.8946 25.2652 69 25 69H7C6.73478 69 6.48043 68.8946 6.29289 68.7071C6.10536 68.5196 6 68.2652 6 68V67ZM6 73C6 72.7348 6.10536 72.4804 6.29289 72.2929C6.48043 72.1054 6.73478 72 7 72H25C25.2652 72 25.5196 72.1054 25.7071 72.2929C25.8946 72.4804 26 72.7348 26 73V74C26 74.2652 25.8946 74.5196 25.7071 74.7071C25.5196 74.8946 25.2652 75 25 75H7C6.73478 75 6.48043 74.8946 6.29289 74.7071C6.10536 74.5196 6 74.2652 6 74V73ZM6 79C6 78.7348 6.10536 78.4804 6.29289 78.2929C6.48043 78.1054 6.73478 78 7 78H25C25.2652 78 25.5196 78.1054 25.7071 78.2929C25.8946 78.4804 26 78.7348 26 79V80C26 80.2652 25.8946 80.5196 25.7071 80.7071C25.5196 80.8946 25.2652 81 25 81H7C6.73478 81 6.48043 80.8946 6.29289 80.7071C6.10536 80.5196 6 80.2652 6 80V79ZM6 85C6 84.7348 6.10536 84.4804 6.29289 84.2929C6.48043 84.1054 6.73478 84 7 84H25C25.2652 84 25.5196 84.1054 25.7071 84.2929C25.8946 84.4804 26 84.7348 26 85V86C26 86.2652 25.8946 86.5196 25.7071 86.7071C25.5196 86.8946 25.2652 87 25 87H7C6.73478 87 6.48043 86.8946 6.29289 86.7071C6.10536 86.5196 6 86.2652 6 86V85Z" fill="#ADADAD" fill-opacity="0.2"/>
<path d="M6 91C6 90.7348 6.10536 90.4804 6.29289 90.2929C6.48043 90.1054 6.73478 90 7 90H25C25.2652 90 25.5196 90.1054 25.7071 90.2929C25.8946 90.4804 26 90.7348 26 91V92C26 92.2652 25.8946 92.5196 25.7071 92.7071C25.5196 92.8946 25.2652 93 25 93H7C6.73478 93 6.48043 92.8946 6.29289 92.7071C6.10536 92.5196 6 92.2652 6 92V91Z" fill="#D5EDFF"/>
<path d="M6 97C6 96.7348 6.10536 96.4804 6.29289 96.2929C6.48043 96.1054 6.73478 96 7 96H25C25.2652 96 25.5196 96.1054 25.7071 96.2929C25.8946 96.4804 26 96.7348 26 97V98C26 98.2652 25.8946 98.5196 25.7071 98.7071C25.5196 98.8946 25.2652 99 25 99H7C6.73478 99 6.48043 98.8946 6.29289 98.7071C6.10536 98.5196 6 98.2652 6 98V97Z" fill="#ADADAD" fill-opacity="0.2"/>
<g filter="url(#filter2_dd_14_48)">
<path d="M168 16H200V108H168V16Z" fill="white"/>
</g>
<path d="M174 25C174 24.7348 174.105 24.4804 174.293 24.2929C174.48 24.1054 174.735 24 175 24H193C193.265 24 193.52 24.1054 193.707 24.2929C193.895 24.4804 194 24.7348 194 25V26C194 26.2652 193.895 26.5196 193.707 26.7071C193.52 26.8946 193.265 27 193 27H175C174.735 27 174.48 26.8946 174.293 26.7071C174.105 26.5196 174 26.2652 174 26V25ZM174 31C174 30.7348 174.105 30.4804 174.293 30.2929C174.48 30.1054 174.735 30 175 30H193C193.265 30 193.52 30.1054 193.707 30.2929C193.895 30.4804 194 30.7348 194 31V32C194 32.2652 193.895 32.5196 193.707 32.7071C193.52 32.8946 193.265 33 193 33H175C174.735 33 174.48 32.8946 174.293 32.7071C174.105 32.5196 174 32.2652 174 32V31ZM174 37C174 36.7348 174.105 36.4804 174.293 36.2929C174.48 36.1054 174.735 36 175 36H193C193.265 36 193.52 36.1054 193.707 36.2929C193.895 36.4804 194 36.7348 194 37V38C194 38.2652 193.895 38.5196 193.707 38.7071C193.52 38.8946 193.265 39 193 39H175C174.735 39 174.48 38.8946 174.293 38.7071C174.105 38.5196 174 38.2652 174 38V37Z" fill="#ADADAD" fill-opacity="0.2"/>
</g>
<rect x="73" y="44" width="55" height="3" rx="1.5" fill="#2463EB"/>
<rect x="77" y="49" width="47" height="3" rx="1.5" fill="#9ABAFE"/>
<path d="M108 56H94C92.8954 56 92 56.8954 92 58V72C92 73.1046 92.8954 74 94 74H108C109.105 74 110 73.1046 110 72V58C110 56.8954 109.105 56 108 56Z" stroke="#9ABAFE" stroke-width="2" stroke-linecap="round" stroke-linejoin="round"/>
<path d="M98 64C99.1046 64 100 63.1046 100 62C100 60.8954 99.1046 60 98 60C96.8954 60 96 60.8954 96 62C96 63.1046 96.8954 64 98 64Z" stroke="#9ABAFE" stroke-width="2" stroke-linecap="round" stroke-linejoin="round"/>
<path d="M110 68L106.914 64.914C106.539 64.5391 106.03 64.3284 105.5 64.3284C104.97 64.3284 104.461 64.5391 104.086 64.914L95 74" stroke="#9ABAFE" stroke-width="2" stroke-linecap="round" stroke-linejoin="round"/>
<rect x="91" y="80" width="20" height="3" rx="1.5" fill="#2463EB"/>
<rect x="134" y="33" width="6" height="6" rx="3" fill="#9ABAFF"/>
</g>
<defs>
<filter id="filter0_dd_14_48" x="-15" y="9" width="62" height="122" filterUnits="userSpaceOnUse" color-interpolation-filters="sRGB">
<feFlood flood-opacity="0" result="BackgroundImageFix"/>
<feColorMatrix in="SourceAlpha" type="matrix" values="0 0 0 0 0 0 0 0 0 0 0 0 0 0 0 0 0 0 127 0" result="hardAlpha"/>
<feOffset dy="3"/>
<feGaussianBlur stdDeviation="3"/>
<feColorMatrix type="matrix" values="0 0 0 0 0 0 0 0 0 0 0 0 0 0 0 0 0 0 0.05 0"/>
<feBlend mode="normal" in2="BackgroundImageFix" result="effect1_dropShadow_14_48"/>
<feColorMatrix in="SourceAlpha" type="matrix" values="0 0 0 0 0 0 0 0 0 0 0 0 0 0 0 0 0 0 127 0" result="hardAlpha"/>
<feOffset dy="8"/>
<feGaussianBlur stdDeviation="7.5"/>
<feColorMatrix type="matrix" values="0 0 0 0 0 0 0 0 0 0 0 0 0 0 0 0 0 0 0.1 0"/>
<feBlend mode="normal" in2="effect1_dropShadow_14_48" result="effect2_dropShadow_14_48"/>
<feBlend mode="normal" in="SourceGraphic" in2="effect2_dropShadow_14_48" result="shape"/>
</filter>
<filter id="filter1_dd_14_48" x="41" y="21" width="118" height="98" filterUnits="userSpaceOnUse" color-interpolation-filters="sRGB">
<feFlood flood-opacity="0" result="BackgroundImageFix"/>
<feColorMatrix in="SourceAlpha" type="matrix" values="0 0 0 0 0 0 0 0 0 0 0 0 0 0 0 0 0 0 127 0" result="hardAlpha"/>
<feOffset dy="3"/>
<feGaussianBlur stdDeviation="3"/>
<feColorMatrix type="matrix" values="0 0 0 0 0 0 0 0 0 0 0 0 0 0 0 0 0 0 0.05 0"/>
<feBlend mode="normal" in2="BackgroundImageFix" result="effect1_dropShadow_14_48"/>
<feColorMatrix in="SourceAlpha" type="matrix" values="0 0 0 0 0 0 0 0 0 0 0 0 0 0 0 0 0 0 127 0" result="hardAlpha"/>
<feOffset dy="8"/>
<feGaussianBlur stdDeviation="7.5"/>
<feColorMatrix type="matrix" values="0 0 0 0 0 0 0 0 0 0 0 0 0 0 0 0 0 0 0.1 0"/>
<feBlend mode="normal" in2="effect1_dropShadow_14_48" result="effect2_dropShadow_14_48"/>
<feBlend mode="normal" in="SourceGraphic" in2="effect2_dropShadow_14_48" result="shape"/>
</filter>
<filter id="filter2_dd_14_48" x="153" y="9" width="62" height="122" filterUnits="userSpaceOnUse" color-interpolation-filters="sRGB">
<feFlood flood-opacity="0" result="BackgroundImageFix"/>
<feColorMatrix in="SourceAlpha" type="matrix" values="0 0 0 0 0 0 0 0 0 0 0 0 0 0 0 0 0 0 127 0" result="hardAlpha"/>
<feOffset dy="3"/>
<feGaussianBlur stdDeviation="3"/>
<feColorMatrix type="matrix" values="0 0 0 0 0 0 0 0 0 0 0 0 0 0 0 0 0 0 0.05 0"/>
<feBlend mode="normal" in2="BackgroundImageFix" result="effect1_dropShadow_14_48"/>
<feColorMatrix in="SourceAlpha" type="matrix" values="0 0 0 0 0 0 0 0 0 0 0 0 0 0 0 0 0 0 127 0" result="hardAlpha"/>
<feOffset dy="8"/>
<feGaussianBlur stdDeviation="7.5"/>
<feColorMatrix type="matrix" values="0 0 0 0 0 0 0 0 0 0 0 0 0 0 0 0 0 0 0.1 0"/>
<feBlend mode="normal" in2="effect1_dropShadow_14_48" result="effect2_dropShadow_14_48"/>
<feBlend mode="normal" in="SourceGraphic" in2="effect2_dropShadow_14_48" result="shape"/>
</filter>
<clipPath id="clip0_14_48">
<rect width="200" height="108" fill="white"/>
</clipPath>
</defs>
</svg>
