              <svg
                width="190"
                height="110"
                viewBox="0 0 430 361"
                fill="none"
                xmlns="http://www.w3.org/2000/svg"
              >
                <path
                  d="M228.164 59.9192C202.727 73.4427 191.908 103.696 202.059 129.907C186.007 106.834 154.877 98.8828 129.44 112.406C104.004 125.93 93.1848 156.183 103.335 182.394C87.2839 159.321 56.1532 151.37 30.7168 164.893C3.25898 179.492 -7.16584 213.585 7.43233 241.043C7.53726 241.24 7.64321 241.436 7.75014 241.632L7.7467 241.634C65.8266 350.877 201.469 392.353 310.712 334.273C419.955 276.193 461.431 140.551 403.351 31.308L403.347 31.3098C403.245 31.1118 403.141 30.914 403.036 30.7167C388.438 3.25881 354.345 -7.166 326.887 7.43216C301.451 20.9556 290.632 51.2093 300.782 77.4196C284.731 54.3466 253.6 46.3958 228.164 59.9192Z"
                  fill="#9580FF"
                />
              </svg>